<?xml version="1.0" encoding="UTF-8" standalone="no"?>
<svg
   xmlns:dc="http://purl.org/dc/elements/1.1/"
   xmlns:cc="http://creativecommons.org/ns#"
   xmlns:rdf="http://www.w3.org/1999/02/22-rdf-syntax-ns#"
   xmlns:svg="http://www.w3.org/2000/svg"
   xmlns="http://www.w3.org/2000/svg"
   xmlns:sodipodi="http://sodipodi.sourceforge.net/DTD/sodipodi-0.dtd"
   xmlns:inkscape="http://www.inkscape.org/namespaces/inkscape"
   id="svg2"
   version="1.1"
   viewBox="0 0 180 185"
   height="185"
   width="180"
   inkscape:version="0.91 r13725"
   sodipodi:docname="Symbol_category2.svg">
  <sodipodi:namedview
     pagecolor="#ffffff"
     bordercolor="#666666"
     borderopacity="1"
     objecttolerance="10"
     gridtolerance="10"
     guidetolerance="10"
     inkscape:pageopacity="0"
     inkscape:pageshadow="2"
     inkscape:window-width="713"
     inkscape:window-height="412"
     id="namedview9"
     showgrid="false"
     inkscape:zoom="1.2756757"
     inkscape:cx="48.008475"
     inkscape:cy="90.864531"
     inkscape:window-x="642"
     inkscape:window-y="294"
     inkscape:window-maximized="0"
     inkscape:current-layer="svg2" />
  <metadata
     id="metadata12">
    <rdf:RDF>
      <cc:Work
         rdf:about="">
        <dc:format>image/svg+xml</dc:format>
        <dc:type
           rdf:resource="http://purl.org/dc/dcmitype/StillImage" />
        <dc:title></dc:title>
      </cc:Work>
    </rdf:RDF>
  </metadata>
  <defs
     id="defs10" />
  <path
     id="_1"
     style="fill-opacity:0.2"
     d="M 164.07,82.2 C 170.8,130.13 140.4,174 96.2,180.3 C 51.9,186.5 10.6,152.7 3.93,104.79 C -2.79,56.87 27.6,12.98 71.843612,6.7 C 116.1,0.5 157.4,34.3 164,82.21z" />
  <path
     id="_2"
     style="fill:#b28a00;fill-opacity:1"
     d="M 176.07,80.2 C 182.8,128 152.4,172.03 108.16,178.26 C 63.9,184.5 22.6,150.7 15.9,102.79 C 9.22,54.9 39.6,10.9 83.8,4.7 C 128,-1.5 169,32.3 176,80.2 z" />
  <path
     id="_3"
     style="fill:#ffeeb1;fill-opacity:1"
     d="M 160.057,82.470048 C 165.43,120.8 141.1,155.9 105.7,160.9 C 70.35,165.89 37.3,138.9 31.9,100.5 C 26.6,62.2 50.9,27 86.3,22 C 121.7,17.1 154.7,44 160.057,82.5 L 160.057,82.5 z" />
  <path
     id="rect4144"
     d="m 138.48828,73.906185 -13.8741,1.151007 -21.46796,1.781001 -2.75036,-34.608524 -13.875924,1.151161 2.750355,34.608522 -22.002987,1.825386 -4.6e-4,-0.0058 -13.875936,1.151161 3.800834,47.826998 13.875936,-1.15115 -2.652525,-33.377504 22.002986,-1.825388 2.674655,33.655972 13.875926,-1.15116 -2.67465,-33.65597 21.46795,-1.781002 2.65299,33.383262 13.8741,-1.151 -3.80083,-47.827011 z"
     style="color:#000000;display:inline;overflow:visible;visibility:visible;opacity:1;fill:#b28a00;fill-opacity:1;fill-rule:nonzero;stroke:none;stroke-width:2.5;stroke-linecap:butt;stroke-linejoin:miter;stroke-miterlimit:4;stroke-dasharray:none;stroke-dashoffset:0;stroke-opacity:1;marker:none;enable-background:accumulate" />
</svg>
