<?xml version="1.0" encoding="UTF-8" standalone="no"?>
<svg xmlns:dc="http://purl.org/dc/elements/1.1/" xmlns:cc="http://creativecommons.org/ns#" xmlns:rdf="http://www.w3.org/1999/02/22-rdf-syntax-ns#" xmlns:svg="http://www.w3.org/2000/svg" xmlns="http://www.w3.org/2000/svg" width="180" height="185">
  <path d="M 165.71698,84.625924 C 172.44698,132.55592 142.04698,176.42592 97.846982,182.72592 C 53.546982,188.92592 12.246984,155.12592 5.5769839,107.21592 C -1.1430161,59.295924 29.246982,15.405924 73.490594,9.125924 C 117.74698,2.925924 159.04698,36.725924 165.64698,84.635924 L 165.71698,84.625924 z " fill-opacity="0.2" id="path4"/>
  <path d="M -77.328045 11.011901 A 38.174603 33.525131 0 1 1  -153.67725,11.011901 A 38.174603 33.525131 0 1 1  -77.328045 11.011901 z" transform="matrix(1.9078766,0,0,2.3628456,316.68757,66.553325)" fill="#efd5ff" stroke="#c855ff" stroke-width="7.934" id="path6" style="fill:#efe5ff;fill-opacity:1;stroke:#6600fe;stroke-opacity:1"/>
  <path d="M 65.290689,64.799549 L 123.0735,47.17714" fill="#c855ff" fill-rule="evenodd" stroke="#c855ff" stroke-width="6" id="path8" style="stroke:#6600fe;stroke-opacity:1"/>
  <path d="M 82.018773 67.33593 A 12.112477 12.112477 0 1 1  57.793818,67.33593 A 12.112477 12.112477 0 1 1  82.018773 67.33593 z" transform="matrix(0.5328772,-0.1625151,0.1625151,0.5328772,3.8798327,44.309256)" fill="#c855ff" fill-rule="evenodd" stroke-width="8" id="path10" style="fill:#6600fe;fill-opacity:1"/>
  <path d="M 72.039697,86.929135 L 129.82251,69.306727" fill="#c855ff" fill-rule="evenodd" stroke="#c855ff" stroke-width="6" id="path12" style="stroke:#6600fe;stroke-opacity:1"/>
  <path d="M 82.018773 67.33593 A 12.112477 12.112477 0 1 1  57.793818,67.33593 A 12.112477 12.112477 0 1 1  82.018773 67.33593 z" transform="matrix(0.5328772,-0.1625151,0.1625151,0.5328772,10.62884,66.438843)" fill="#c855ff" fill-rule="evenodd" stroke-width="8" id="path14" style="fill:#6600fe;fill-opacity:1"/>
  <path d="M 78.788705,109.05872 L 136.57151,91.436314" fill="#c855ff" fill-rule="evenodd" stroke="#c855ff" stroke-width="6" id="path16" style="stroke:#6600fe;stroke-opacity:1"/>
  <path d="M 82.018773 67.33593 A 12.112477 12.112477 0 1 1  57.793818,67.33593 A 12.112477 12.112477 0 1 1  82.018773 67.33593 z" transform="matrix(0.5328772,-0.1625151,0.1625151,0.5328772,17.377848,88.568429)" fill="#c855ff" fill-rule="evenodd" stroke-width="8" id="path18" style="fill:#6600fe;fill-opacity:1"/>
  <path d="M 85.537713,131.18831 L 143.32052,113.5659" fill="#c855ff" fill-rule="evenodd" stroke="#c855ff" stroke-width="6" id="path20" style="stroke:#6600fe;stroke-opacity:1"/>
  <path d="M 82.018773 67.33593 A 12.112477 12.112477 0 1 1  57.793818,67.33593 A 12.112477 12.112477 0 1 1  82.018773 67.33593 z" transform="matrix(0.5328772,-0.1625151,0.1625151,0.5328772,24.126855,110.69802)" fill="#c855ff" fill-rule="evenodd" stroke-width="8" id="path22" style="fill:#6600fe;fill-opacity:1"/>
</svg>